<svg fill="#ff7300" height="100px" width="100px" version="1.1" id="Capa_1" xmlns="http://www.w3.org/2000/svg" xmlns:xlink="http://www.w3.org/1999/xlink" viewBox="-61.2 -61.2 734.40 734.40" xml:space="preserve" stroke="#ff7300" transform="rotate(0)"><g id="SVGRepo_bgCarrier" stroke-width="0"><path transform="translate(-61.2, -61.2), scale(22.950000000000003)" d="M16,31.887829606585644C18.471181684772187,32.419680308180794,19.983749813179102,28.957380420829384,22.001301704910826,27.43452505930929C23.702805701709103,26.150223775763088,25.81763298425195,25.366465618192578,26.99462899146674,23.589044442151465C28.164287555712427,21.82270378501724,28.288004242136225,19.62600437678587,28.563036680995683,17.525428829100505C28.840114594156375,15.409230857680651,29.599985976383202,13.109090023823734,28.614670610107204,11.215886481363654C27.62832174645255,9.320697157533097,24.949472198316034,9.116925484431633,23.413787363511894,7.631563999086488C21.78539784951045,6.056535703944061,21.454675839977302,3.195741445223871,19.380591351531375,2.2844017310683213C17.32780443949764,1.3824200383954142,14.890763765051814,2.187875581891114,12.786412266355974,2.96196204351582C10.79376441207095,3.6949582790513285,9.393969756359423,5.359007264507773,7.666507645871466,6.593431668561918C5.739070682714795,7.970755784761796,3.080238252592145,8.58478082273374,1.9810821208653113,10.683325739121209C0.8766059040999346,12.792027936253538,1.37314252927966,15.385048729722318,1.839024378384364,17.719453744338644C2.2850995223342627,19.95461284086381,2.821207200453376,22.450046806001,4.611025028041778,23.861241819057614C6.396892634147832,25.269322250970585,9.357944321548281,23.803373481365412,11.216872890422191,25.11348728752867C13.509679267031427,26.72938439038215,13.257780528047324,31.297645825654797,16,31.887829606585644" fill="#ffbb00" strokewidth="0"></path></g><g id="SVGRepo_tracerCarrier" stroke-linecap="round" stroke-linejoin="round"></g><g id="SVGRepo_iconCarrier"> <g> <path d="M216.02,611.195c5.978,3.178,12.284-3.704,8.624-9.4c-19.866-30.919-38.678-82.947-8.706-149.952 c49.982-111.737,80.396-169.609,80.396-169.609s16.177,67.536,60.029,127.585c42.205,57.793,65.306,130.478,28.064,191.029 c-3.495,5.683,2.668,12.388,8.607,9.349c46.1-23.582,97.806-70.885,103.64-165.017c2.151-28.764-1.075-69.034-17.206-119.851 c-20.741-64.406-46.239-94.459-60.992-107.365c-4.413-3.861-11.276-0.439-10.914,5.413c4.299,69.494-21.845,87.129-36.726,47.386 c-5.943-15.874-9.409-43.33-9.409-76.766c0-55.665-16.15-112.967-51.755-159.531c-9.259-12.109-20.093-23.424-32.523-33.073 c-4.5-3.494-11.023,0.018-10.611,5.7c2.734,37.736,0.257,145.885-94.624,275.089c-86.029,119.851-52.693,211.896-40.864,236.826 C153.666,566.767,185.212,594.814,216.02,611.195z"></path> </g> </g></svg>